# AST/ASF file generated using VICON BodyLanguage
# -----------------------------------------------
:version 1.10
:name VICON
:units
  mass 1.0
  length 0.45
  angle deg
:documentation
   .ast/.asf automatically generated from VICON data using
   VICON BodyBuilder and BodyLanguage model FoxedUp or BRILLIANT.MOD
:root
   order TX TY TZ RX RY RZ
   axis XYZ
   position 0 0 0  
   orientation 0 0 0 
:bonedata
  begin
     id 1 
     name lhipjoint
     direction 0.643824 -0.71708 0.266994 
     length 2.52133 
     axis 0 0 0  XYZ
  end
  begin
     id 2 
     name lfemur
     direction 0.34202 -0.939693 0  
     length 7.51824  
     axis 0 0 20  XYZ
    dof rx ry rz
    limits (-160.0 20.0)
           (-70.0 70.0)
           (-60.0 70.0)
  end
  begin
     id 3 
     name ltibia
     direction 0.34202 -0.939693 0   
     length 7.3685   
     axis 0 0 20   XYZ
    dof rx
    limits (-10.0 170.0)
  end
  begin
     id 4 
     name lfoot
     direction 0.105419 -0.289636 0.951314   
     length 2.20972   
     axis -90 7.62852e-016 20   XYZ
    dof rx rz
    limits (-45.0 90.0)
           (-70.0 20.0)
  end
  begin
     id 5 
     name ltoes
     direction 1.53549e-011 -4.21833e-011 1   
     length 1.10139   
     axis -90 7.62852e-016 20   XYZ
    dof rx
    limits (-90.0 20.0)
  end
  begin
     id 6 
     name rhipjoint
     direction -0.608823 -0.743445 0.276811   
     length 2.43192  
     axis 0 0 0  XYZ 
  end
  begin
     id 7 
     name rfemur
     direction -0.34202 -0.939693 0   
     length 7.69715   
     axis 0 0 -20   XYZ
    dof rx ry rz
    limits (-160.0 20.0)
           (-70.0 70.0)
           (-70.0 60.0)
  end
  begin
     id 8 
     name rtibia
     direction -0.34202 -0.939693 0   
     length 7.44924   
     axis 0 0 -20   XYZ
    dof rx
    limits (-10.0 170.0)
 end
 begin
     id 9 
     name rfoot
     direction -0.103614 -0.284677 0.953007   
     length 2.22623  
     axis -90 -7.62852e-016 -20   XYZ
    dof rx rz
    limits (-45.0 90.0)
           (-20.0 70.0)
  end
  begin
     id 10 
     name rtoes
     direction -1.53537e-011 -4.22026e-011 1   
     length 1.11   
     axis -90 -7.62852e-016 -20   XYZ
    dof rx
    limits (-90.0 20.0)
  end
  begin
     id 11 
     name lowerback
     direction -0.0101212 0.99662 -0.0815298   
     length 2.08277   
     axis 0 0 0   XYZ
    dof rx ry rz
    limits (-20.0 45.0)
           (-30.0 30.0)
           (-30.0 30.0)
  end
  begin
     id 12 
     name upperback
     direction 0.024314 0.999591 -0.0150645   
     length 2.08524   
     axis 0 0 0   XYZ
    dof rx ry rz
    limits (-20.0 45.0)
           (-30.0 30.0)
           (-30.0 30.0)
  end
  begin
     id 13 
     name thorax
     direction 0.0285959 0.999323 0.0231357   
     length 2.09645   
     axis 0 0 0   XYZ
    dof rx ry rz
    limits (-20.0 45.0)
           (-30.0 30.0)
           (-30.0 30.0)
  end
  begin
     id 14 
     name lowerneck
     direction -0.065512 0.979301 0.191515   
     length 1.63798   
     axis 0 0 0   XYZ
    dof rx ry rz
    limits (-20.0 45.0)
           (-30.0 30.0)
           (-30.0 30.0)
  end
  begin
     id 15 
     name upperneck
     direction 0.0498479 0.98191 -0.182667   
     length 1.68731   
     axis 0 0 0   XYZ
    dof rx ry rz
    limits (-20.0 45.0)
           (-30.0 30.0)
           (-30.0 30.0)
  end
  begin
     id 16
     name head
     direction 0.0230358 0.996257 -0.0833175  
     length 1.69785  
     axis 0 0 0   XYZ
    dof rx ry rz
    limits (-20.0 45.0)
           (-30.0 30.0)
           (-30.0 30.0)
  end
  begin
     id 17 
     name lclavicle
     direction 0.967963 0.201165 -0.150269  
     length 3.63976  
     axis 0 0 0   XYZ
    dof ry rz
    limits (-20.0 10.0)
           (0.0 20.0)
  end
  begin
     id 18 
     name lhumerus
     direction 1 -4.48954e-011 -2.92837e-028   
     length 5.32462   
     axis 180 -30 -90   XYZ
    dof rx ry rz
    limits (-60.0 90.0)
           (-90.0 90.0)
           (-90.0 90.0)
  end
  begin
     id 19
     name lradius
     direction 1 -4.48958e-011 -6.39511e-027   
     length 3.48402   
     axis 180 -30 -90   XYZ
    dof rx
    limits (-10.0 170.0)
  end
  begin
     id 20
     name lwrist
     direction 1 -4.48975e-011 -1.1413e-026   
     length 1.74201   
     axis 6.88575e-015 90 90   XYZ
    dof ry
    limits (-180.0 0.0)
 end
  begin
     id 21 
     name lhand
     direction 1 -4.48899e-011 -2.28192e-026   
     length 0.572476   
     axis 1.45643e-014 90 90   XYZ
    dof rx rz
    limits (-90.0 90.0)
           (-45.0 45.0)
  end
  begin
     id 22 
     name lfingers
     direction 1 -4.49155e-011 -4.5684e-026   
     length 0.461545   
     axis 2.91283e-014 90 90   XYZ
    dof rx
    limits (0.0 90.0)
  end
  begin
     id 23
     name lthumb
     direction 0.707107 -6.34943e-011 0.707107   
     length 0.662688   
     axis -90 45 -2.25915e-014   XYZ
    dof rx rz
    limits (-45.0 45.0)
           (-45.0 45.0)
  end
  begin
     id 24 
     name rclavicle
     direction -0.964103 0.264019 -0.0282629   
     length 3.54491  
     axis 0 0 0   XYZ 
    dof ry rz
    limits (-10.0 20.0)
           (-20.0 0.0)
  end
  begin
     id 25 
     name rhumerus
     direction -1 -4.48964e-011 -2.45032e-027  
     length 5.33589   
     axis 180 30 90   XYZ
    dof rx ry rz
    limits (-90.0 60.0)
           (-90.0 90.0)
           (-90.0 90.0)
  end
  begin
     id 26 
     name rradius
     direction -1 -4.48987e-011 -1.55093e-027   
     length 3.64134   
     axis 180 30 90   XYZ
    dof rx
    limits (-10.0 170.0)
  end
  begin
     id 27 
     name rwrist
     direction -1 -4.4897e-011 -1.14128e-026   
     length 1.82067   
     axis 6.88575e-015 -90 -90   XYZ
    dof ry
    limits (-180.0 0.0)
  end
  begin
     id 28
     name rhand
     direction -1 -4.49021e-011 -2.28301e-026   
     length 0.734811   
     axis 1.45643e-014 -90 -90   XYZ
    dof rx rz
    limits (-90.0 90.0)
           (-45.0 45.0)
  end
  begin
     id 29
     name rfingers
     direction -1 -4.48862e-011 -4.56319e-026   
     length 0.592424   
     axis 2.91283e-014 -90 -90   XYZ
    dof rx
    limits (0.0 90.0)
  end
  begin
     id 30
     name rthumb
     direction -0.707107 -6.34978e-011 0.707107   
     length 0.850605   
     axis -90 -45 2.25915e-014   XYZ
    dof rx rz
    limits (-45.0 45.0)
           (-45.0 45.0)
  end
:hierarchy
  begin
    root lhipjoint rhipjoint lowerback
    lhipjoint lfemur
    lfemur ltibia
    ltibia lfoot
    lfoot ltoes
    rhipjoint rfemur
    rfemur rtibia
    rtibia rfoot
    rfoot rtoes
    lowerback upperback
    upperback thorax
    thorax lowerneck lclavicle rclavicle
    lowerneck upperneck
    upperneck head
    lclavicle lhumerus
    lhumerus lradius
    lradius lwrist
    lwrist lhand lthumb
    lhand lfingers
    rclavicle rhumerus
    rhumerus rradius
    rradius rwrist
    rwrist rhand rthumb
    rhand rfingers
  end

#!OML:ASF F:\VICON\USERDATA\INSTALL\rory3\rory3.ASF
:FULLY-SPECIFIED
:DEGREES
100
root -1.59871 17.5242 -2.62205 -1.40793 -11.351 2.02264
lowerback 2.32181 -0.0945906 -2.05973
upperback -5.34118 -0.112855 2.4214
thorax -6.86572 0.124651 3.70227
lowerneck -23.539 -2.6525 -10.2861
upperneck 12.4146 -2.24312 10.7116
head 7.9139 -0.479339 5.01694
rclavicle -2.64384e-014 2.22639e-014
rhumerus 68.2307 -47.6532 -31.6849
rradius 64.986
rwrist 3.66357
rhand -35.2767 1.28355
rfingers 7.12502
rthumb -8.41185 -28.5289
lclavicle -2.64384e-014 2.22639e-014
lhumerus 78.0228 56.4208 44.6246
lradius 65.5208
lwrist 17.0368
lhand -27.5999 21.8791
lfingers 7.12502
lthumb -0.999479 51.8565
rfemur 4.71562 -2.62403 19.3164
rtibia 27.0877
rfoot -27.8106 -6.99785
rtoes -3.4041
lfemur -13.4629 3.78985 -14.9811
ltibia 32.7426
lfoot -12.5229 6.52768
ltoes -13.4984
101
root -1.57141 17.5175 -2.57278 -1.41059 -11.1859 2.09069
lowerback 2.37591 -0.105712 -2.08786
upperback -5.54803 -0.127582 2.44279
thorax -7.11799 0.126719 3.74586
lowerneck -23.3859 -2.59672 -10.2897
upperneck 12.942 -2.18852 10.5721
head 8.05599 -0.472542 4.98712
rclavicle 2.96189e-014 -8.74653e-015
rhumerus 69.0823 -48.3842 -32.3115
rradius 65.8932
rwrist 3.91742
rhand -35.1829 1.23661
rfingers 7.12502
rthumb -8.32131 -28.5795
lclavicle 2.96189e-014 -8.74653e-015
lhumerus 78.8104 56.6133 45.565
lradius 66.7481
lwrist 16.9184
lhand -27.7104 21.3771
lfingers 7.12502
lthumb -1.10617 51.354
rfemur 4.89906 -2.69965 19.1305
rtibia 27.0647
rfoot -27.8677 -7.2024
rtoes -4.29094
lfemur -13.5007 3.92029 -15.1875
ltibia 32.9878
lfoot -12.6594 6.2737
ltoes -12.2146
102
root -1.54527 17.5139 -2.52678 -1.36052 -11.0259 2.01854
lowerback 2.40597 -0.134742 -2.00527
upperback -5.67187 -0.156987 2.51013
thorax -7.26613 0.113949 3.77526
lowerneck -23.4589 -2.54584 -10.3627
upperneck 13.5042 -2.1246 10.5733
head 8.25015 -0.445685 5.02346
rclavicle -1.82882e-014 -1.43125e-014
rhumerus 70.2568 -49.2484 -33.2858
rradius 66.7537
rwrist 4.39493
rhand -35.2863 1.4234
rfingers 7.12502
rthumb -8.42108 -28.3887
lclavicle -1.82882e-014 -1.43125e-014
lhumerus 79.5286 57.0439 46.2607
lradius 67.7735
lwrist 16.959
lhand -28.0327 20.8577
lfingers 7.12502
lthumb -1.4175 50.8327
rfemur 5.02839 -2.78087 19.0957
rtibia 27.0463
rfoot -27.9585 -7.31399
rtoes -4.58495
lfemur -13.6185 3.94397 -15.2237
ltibia 33.1433
lfoot -12.6492 6.17396
ltoes -14.6775
103
root -1.51755 17.5063 -2.4807 -1.36131 -10.89 1.97846
lowerback 2.43424 -0.138662 -1.96211
upperback -5.71382 -0.156327 2.56056
thorax -7.32789 0.115161 3.80523
lowerneck -23.7085 -2.47863 -10.1771
upperneck 14.0374 -2.05579 10.3303
head 8.45828 -0.424069 4.93267
rclavicle -1.21259e-014 7.95139e-016
rhumerus 71.4796 -50.18 -34.4486
rradius 67.7879
rwrist 4.76483
rhand -35.4199 1.65547
rfingers 7.12502
rthumb -8.55006 -28.1514
lclavicle -1.21259e-014 7.95139e-016
lhumerus 80.4715 57.4691 47.1976
lradius 68.7362
lwrist 17.0239
lhand -28.3437 20.4712
lfingers 7.12502
lthumb -1.71781 50.444
rfemur 5.25088 -2.68062 19.0631
rtibia 27.0015
rfoot -28.1689 -7.33127
rtoes -3.87754
lfemur -13.6424 3.90841 -15.2969
ltibia 33.2642
lfoot -12.6632 6.17711
ltoes -15.8402
104
root -1.48754 17.4989 -2.42713 -1.37008 -10.7952 2.11236
lowerback 2.3657 -0.100164 -2.01826
upperback -5.79118 -0.108929 2.52785
thorax -7.3753 0.142559 3.7988
lowerneck -23.5924 -2.41577 -9.88865
upperneck 14.2152 -1.99781 9.88489
head 8.48287 -0.431134 4.73807
rclavicle 2.5842e-014 4.53229e-014
rhumerus 72.5858 -51.0143 -35.498
rradius 68.7778
rwrist 4.95099
rhand -35.638 2.1739
rfingers 7.12502
rthumb -8.76046 -27.6243
lclavicle 2.5842e-014 4.53229e-014
lhumerus 81.2686 57.7504 48.037
lradius 69.6806
lwrist 17.1761
lhand -28.6704 20.0429
lfingers 7.12502
lthumb -2.03342 50.0129
rfemur 5.47957 -2.56039 18.8097
rtibia 26.9487
rfoot -28.4043 -7.28634
rtoes -3.4558
lfemur -13.6208 3.93065 -15.5814
ltibia 33.4058
lfoot -12.8079 6.17793
ltoes -16.2982
105
root -1.45549 17.4927 -2.37592 -1.37712 -10.6763 2.17017
lowerback 2.42551 -0.0761881 -1.97772
upperback -5.9604 -0.0746547 2.51063
thorax -7.5953 0.162608 3.75825
lowerneck -23.3266 -2.32681 -9.81559
upperneck 14.4068 -1.89775 9.69467
head 8.48865 -0.40686 4.67451
rclavicle 2.18663e-015 -4.77083e-015
rhumerus 73.6505 -51.7095 -36.4543
rradius 69.6557
rwrist 5.02781
rhand -35.9491 2.62058
rfingers 7.12502
rthumb -9.06064 -27.1648
lclavicle 2.18663e-015 -4.77083e-015
lhumerus 81.7708 57.9816 48.5484
lradius 70.4917
lwrist 17.3277
lhand -29.2513 19.5945
lfingers 7.12502
lthumb -2.59443 49.5585
rfemur 5.68723 -2.52372 18.6157
rtibia 26.9169
rfoot -28.5839 -7.23244
rtoes -3.11455
lfemur -13.5853 4.03399 -15.7864
ltibia 33.5892
lfoot -12.9661 6.05683
ltoes -16.7297
106
root -1.42242 17.4854 -2.32756 -1.32823 -10.5209 2.20231
lowerback 2.46045 -0.0669026 -1.95308
upperback -6.11721 -0.0592989 2.51787
thorax -7.78657 0.174348 3.75375
lowerneck -23.4318 -2.257 -9.82976
upperneck 14.9942 -1.81011 9.63954
head 8.69615 -0.372791 4.68591
rclavicle -1.19271e-015 3.02153e-014
rhumerus 74.7554 -52.4769 -37.5007
rradius 70.611
rwrist 5.00067
rhand -36.2325 2.80437
rfingers 7.12502
rthumb -9.3341 -26.969
lclavicle -1.19271e-015 3.02153e-014
lhumerus 82.4134 58.1744 49.2841
lradius 71.2215
lwrist 17.2232
lhand -29.6639 19.4575
lfingers 7.12502
lthumb -2.99291 49.4162
rfemur 5.81417 -2.57307 18.4361
rtibia 26.9062
rfoot -28.6993 -7.14907
rtoes -2.75444
lfemur -13.6153 3.98938 -15.9497
ltibia 33.8251
lfoot -13.2354 5.88698
ltoes -16.326
107
root -1.38869 17.478 -2.28114 -1.31634 -10.3188 2.21324
lowerback 2.51183 -0.0657626 -1.91596
upperback -6.20586 -0.0547024 2.52144
thorax -7.91297 0.177891 3.73829
lowerneck -23.5608 -2.22786 -9.73715
upperneck 15.4763 -1.76993 9.41947
head 8.87515 -0.372237 4.61208
rclavicle 3.97569e-016 3.18055e-015
rhumerus 75.9723 -53.3151 -38.7614
rradius 71.6568
rwrist 5.08439
rhand -36.4025 2.85659
rfingers 7.12502
rthumb -9.49817 -26.9094
lclavicle 3.97569e-016 3.18055e-015
lhumerus 82.9797 58.4295 49.9335
lradius 71.9195
lwrist 17.1145
lhand -30.0687 19.2771
lfingers 7.12502
lthumb -3.38381 49.23
rfemur 5.95865 -2.63659 18.2966
rtibia 26.9359
rfoot -28.746 -7.3098
rtoes -3.30632
lfemur -13.6478 3.81496 -16.0901
ltibia 34.1005
lfoot -13.5281 5.73914
ltoes -15.8413
108
root -1.35471 17.4707 -2.23568 -1.36677 -10.1561 2.27001
lowerback 2.61037 -0.0401177 -1.91055
upperback -6.27624 -0.0209089 2.50621
thorax -8.04984 0.197066 3.71827
lowerneck -23.4289 -2.21754 -9.76707
upperneck 15.5905 -1.74461 9.32764
head 8.88815 -0.375854 4.58949
rclavicle -1.03368e-014 1.66979e-014
rhumerus 77.3807 -54.0936 -40.1679
rradius 72.6472
rwrist 5.23501
rhand -36.316 2.69383
rfingers 7.12502
rthumb -9.41476 -27.0759
lclavicle -1.03368e-014 1.66979e-014
lhumerus 83.4568 58.7385 50.4271
lradius 72.4965
lwrist 17.1408
lhand -30.8074 18.9305
lfingers 7.12502
lthumb -4.09714 48.8708
rfemur 6.1218 -2.65511 18.1129
rtibia 27.0248
rfoot -28.8159 -7.5199
rtoes -3.76453
lfemur -13.6257 3.84179 -16.3167
ltibia 34.3623
lfoot -13.7711 5.65132
ltoes -16.0434
109
root -1.32167 17.4603 -2.18772 -1.45273 -10.0639 2.39796
lowerback 2.68733 0.0118995 -2.02659
upperback -6.33823 0.041599 2.51241
thorax -8.16874 0.238511 3.78646
lowerneck -23.1922 -2.18135 -9.84398
upperneck 15.5987 -1.66835 9.2179
head 8.84151 -0.361992 4.57151
rclavicle -4.27387e-014 -5.08889e-014
rhumerus 78.9868 -54.7367 -41.7652
rradius 73.6357
rwrist 5.44755
rhand -37.348 3.17688
rfingers 7.12502
rthumb -10.4104 -26.5454
lclavicle -4.27387e-014 -5.08889e-014
lhumerus 83.9057 59.0775 50.9592
lradius 73.0144
lwrist 17.2349
lhand -31.1795 18.7646
lfingers 7.12502
lthumb -4.45643 48.6977
rfemur 6.29779 -2.56085 17.8591
rtibia 27.1719
rfoot -28.9608 -7.70148
rtoes -3.9574
lfemur -13.518 3.97832 -16.6058
ltibia 34.5723
lfoot -14.0029 5.53716
ltoes -16.2235
